<svg xmlns="http://www.w3.org/2000/svg" xmlns:xlink="http://www.w3.org/1999/xlink" viewBox="0 0 515.4 151.86"><defs><style>.cls-1{fill:none;}.cls-2{isolation:isolate;}.cls-3{fill:url(#linear-gradient);}.cls-4,.cls-5{opacity:0.59;}.cls-4{fill:url(#linear-gradient-2);}.cls-5{fill:url(#linear-gradient-3);}.cls-6{clip-path:url(#clip-path);}.cls-7{fill:url(#linear-gradient-4);}.cls-8{clip-path:url(#clip-path-2);}.cls-9{fill:url(#linear-gradient-5);}.cls-10{clip-path:url(#clip-path-3);}.cls-11{fill:url(#radial-gradient);}.cls-12{clip-path:url(#clip-path-4);}.cls-13{fill:url(#radial-gradient-2);}.cls-14{clip-path:url(#clip-path-5);}.cls-15{fill:url(#radial-gradient-3);}.cls-16{clip-path:url(#clip-path-6);}.cls-17{fill:url(#radial-gradient-4);}.cls-18{fill:#69c7e3;opacity:0.17;mix-blend-mode:color-burn;}.cls-19{font-size:92.51px;font-family:NexaBold, Nexa Bold;letter-spacing:0em;}.cls-19,.cls-21{fill:#242528;stroke:#242528;stroke-miterlimit:10;stroke-width:2px;}.cls-20{letter-spacing:0.02em;}.cls-21{font-size:47.64px;font-family:Lora-Regular, Lora;letter-spacing:0em;}.cls-22{letter-spacing:0em;}.cls-23{letter-spacing:0.02em;}</style><linearGradient id="linear-gradient" x1="323.5" y1="529.43" x2="397.68" y2="455.24" gradientUnits="userSpaceOnUse"><stop offset="0" stop-color="#8e47ec"/><stop offset="0.58" stop-color="#5698db"/><stop offset="1" stop-color="#30cfd0"/></linearGradient><linearGradient id="linear-gradient-2" x1="299.58" y1="492.39" x2="412.64" y2="492.39" gradientUnits="userSpaceOnUse"><stop offset="0" stop-color="#8300ec"/><stop offset="0.1" stop-color="#8105e9" stop-opacity="0.97"/><stop offset="0.25" stop-color="#7a13e2" stop-opacity="0.89"/><stop offset="0.43" stop-color="#702ad5" stop-opacity="0.76"/><stop offset="0.63" stop-color="#614ac4" stop-opacity="0.58"/><stop offset="0.85" stop-color="#4f72af" stop-opacity="0.35"/><stop offset="1" stop-color="#41919e" stop-opacity="0.17"/></linearGradient><linearGradient id="linear-gradient-3" x1="360.59" y1="553.35" x2="360.59" y2="440.29" gradientUnits="userSpaceOnUse"><stop offset="0" stop-color="#8300ec"/><stop offset="0.13" stop-color="#8007e8"/><stop offset="0.32" stop-color="#781bdd"/><stop offset="0.55" stop-color="#6c3ccb"/><stop offset="0.81" stop-color="#5a6ab2"/><stop offset="1" stop-color="#4c8f9e"/></linearGradient><clipPath id="clip-path" transform="translate(-299.58 -431.35)"><polygon class="cls-1" points="392.36 508.24 376.46 492.34 360.59 508.21 376.52 524.14 392.4 508.27 392.36 508.24"/></clipPath><linearGradient id="linear-gradient-4" x1="75.59" y1="75.56" x2="53.08" y2="53.05" gradientUnits="userSpaceOnUse"><stop offset="0" stop-color="#690058" stop-opacity="0"/><stop offset="0.1" stop-color="#500043" stop-opacity="0.24"/><stop offset="1"/></linearGradient><clipPath id="clip-path-2" transform="translate(-299.58 -431.35)"><polyline class="cls-1" points="328.79 476.4 344.72 492.34 360.59 476.47 344.66 460.53 328.72 476.47"/></clipPath><linearGradient id="linear-gradient-5" x1="368.53" y1="500.27" x2="345.8" y2="477.54" gradientUnits="userSpaceOnUse"><stop offset="0"/><stop offset="0.89" stop-color="#4d0041" stop-opacity="0.27"/><stop offset="1" stop-color="#690058" stop-opacity="0"/></linearGradient><clipPath id="clip-path-3" transform="translate(-299.58 -431.35)"><path class="cls-1" d="M389.75,524.16a31.74,31.74,0,0,1-22.52-9.31h0a9.4,9.4,0,0,1-6.64,16h0v22.43a31.77,31.77,0,0,0,31.72-29.27C391.46,524.12,390.6,524.16,389.75,524.16Z"/></clipPath><radialGradient id="radial-gradient" cx="565.29" cy="696.57" r="17.79" gradientTransform="matrix(0.27, -0.96, -1.35, -0.38, 1169.37, 1325.84)" gradientUnits="userSpaceOnUse"><stop offset="0"/><stop offset="1" stop-color="#5b37ba" stop-opacity="0"/></radialGradient><clipPath id="clip-path-4" transform="translate(-299.58 -431.35)"><path class="cls-1" d="M389.75,460.52a31.74,31.74,0,0,0-22.52,9.31h0a9.4,9.4,0,0,0-6.64-16h0V431.36a31.77,31.77,0,0,1,31.72,29.27C391.46,460.56,390.6,460.52,389.75,460.52Z"/></clipPath><radialGradient id="radial-gradient-2" cx="469.96" cy="696.57" r="17.79" gradientTransform="translate(1195.44 -249.47) rotate(74.13) scale(1 1.4)" gradientUnits="userSpaceOnUse"><stop offset="0"/><stop offset="1" stop-color="#690058" stop-opacity="0"/></radialGradient><clipPath id="clip-path-5" transform="translate(-299.58 -431.35)"><path class="cls-1" d="M328.77,463.18a31.71,31.71,0,0,0,9.31,22.51h0a9.4,9.4,0,0,0-16,6.65H299.61a31.77,31.77,0,0,1,29.27-31.72C328.81,461.47,328.77,462.33,328.77,463.18Z"/></clipPath><radialGradient id="radial-gradient-3" cx="338.21" cy="469.5" r="17.79" gradientTransform="translate(-167.33 -71.94) rotate(-15.87) scale(1 1.4)" gradientUnits="userSpaceOnUse"><stop offset="0"/><stop offset="1" stop-color="#6837ba" stop-opacity="0"/></radialGradient><clipPath id="clip-path-6" transform="translate(-299.58 -431.35)"><path class="cls-1" d="M331.43,524.16A31.74,31.74,0,0,0,354,514.85h0a9.4,9.4,0,0,0,6.64,16h0v22.43a31.77,31.77,0,0,1-31.71-29.27C329.73,524.12,330.58,524.16,331.43,524.16Z"/></clipPath><radialGradient id="radial-gradient-4" cx="565.29" cy="337.75" r="17.79" gradientTransform="translate(36.29 1188.1) rotate(-105.87) scale(1 1.4)" gradientUnits="userSpaceOnUse"><stop offset="0"/><stop offset="1" stop-color="#0f37ba" stop-opacity="0"/></radialGradient></defs><title>PS</title><g class="cls-2"><g id="prisma_s" data-name="prisma s"><path class="cls-3" d="M412.26,469.82a31.69,31.69,0,0,0-19.95-9.2,31.82,31.82,0,0,0-63.43,0,31.81,31.81,0,0,0,0,63.43,31.81,31.81,0,0,0,63.43,0,31.82,31.82,0,0,0,19.95-54.23ZM338.08,499a9.39,9.39,0,1,1,0-13.29l6.64,6.65Zm29.15,29.16A9.39,9.39,0,0,1,354,514.85l6.64-6.64h0l6.64,6.64A9.4,9.4,0,0,1,367.23,528.14Zm0-58.32-6.64,6.65L354,469.82a9.4,9.4,0,1,1,13.28,0ZM396.39,499a9.4,9.4,0,0,1-13.28,0l-6.65-6.64h0l6.65-6.65A9.39,9.39,0,0,1,396.39,499Z" transform="translate(-299.58 -431.35)"/><path class="cls-4" d="M355.07,513.71l13.45-13.45,7.32,7.32a21.55,21.55,0,0,0,30.48,0h0a21.56,21.56,0,0,0,0-30.49h0a21.55,21.55,0,0,0-30.48,0l-15.25,15.25-15.24,15.24a21.56,21.56,0,0,1-30.49,0h0a21.56,21.56,0,0,1,0-30.49h0a21.47,21.47,0,0,1,14.83-6.3,32.26,32.26,0,0,1-.81-10.17,31.84,31.84,0,1,0,25.06,54.24l1.14-1.14Zm28-28a9.4,9.4,0,0,1,13.29,0h0a9.38,9.38,0,0,1,0,13.29h0a9.4,9.4,0,0,1-13.29,0l-6.65-6.64Z" transform="translate(-299.58 -431.35)"/><path class="cls-5" d="M392.31,524.06a31.82,31.82,0,0,1-63.44,0,32.26,32.26,0,0,0,10.17-.81,21.44,21.44,0,0,0,6.31,14.83h0a21.56,21.56,0,0,0,30.49,0h0a21.45,21.45,0,0,0,6.3-14.82A32,32,0,0,0,392.31,524.06Zm-47-47a21.56,21.56,0,0,1,0-30.49h0a21.56,21.56,0,0,1,30.49,0h0a21.48,21.48,0,0,1,6.3,14.82,31.71,31.71,0,0,0-14.9,8.4l-6.65,6.65-7.93,7.93Zm8.59-7.27,6.65,6.65,6.65-6.65a9.4,9.4,0,0,0,0-13.29h0a9.39,9.39,0,0,0-13.3,0h0A9.4,9.4,0,0,0,353.94,469.82Z" transform="translate(-299.58 -431.35)"/><g class="cls-6"><polygon class="cls-7" points="83.53 67.63 76.88 60.98 45.14 60.98 67.65 83.5 83.53 67.63"/></g><g class="cls-8"><path class="cls-9" d="M353.75,469.6l-15.88,15.88.21.21,22.51,22.52V476.47L354,469.82Z" transform="translate(-299.58 -431.35)"/></g><g class="cls-10"><path class="cls-11" d="M360.59,530.89h0a9.4,9.4,0,0,0,6.64-16l-6.64-6.64V476.47L383.11,499a31.83,31.83,0,0,1-22.52,54.34Z" transform="translate(-299.58 -431.35)"/></g><g class="cls-12"><path class="cls-13" d="M360.59,453.79h0a9.4,9.4,0,0,1,6.64,16l-6.64,6.64v31.74l22.52-22.51a31.83,31.83,0,0,0-22.52-54.34Z" transform="translate(-299.58 -431.35)"/></g><g class="cls-14"><path class="cls-15" d="M322,492.34h0a9.4,9.4,0,0,1,16-6.65l6.64,6.65h31.75L354,469.82a31.83,31.83,0,0,0-54.34,22.52Z" transform="translate(-299.58 -431.35)"/></g><g class="cls-16"><path class="cls-17" d="M360.59,530.89h0a9.4,9.4,0,0,1-6.64-16l6.64-6.64V476.47L338.08,499a31.83,31.83,0,0,0,22.51,54.34Z" transform="translate(-299.58 -431.35)"/></g><path id="Color_Balance" data-name="Color Balance" class="cls-18" d="M412.26,469.82a31.69,31.69,0,0,0-19.95-9.2,31.82,31.82,0,0,0-63.43,0,31.81,31.81,0,0,0,0,63.43,31.81,31.81,0,0,0,63.43,0,31.82,31.82,0,0,0,19.95-54.23ZM338.08,499a9.39,9.39,0,1,1,0-13.29l6.64,6.65Zm29.15,29.16A9.39,9.39,0,0,1,354,514.85l6.64-6.64h0l6.64,6.64A9.4,9.4,0,0,1,367.23,528.14Zm0-58.32-6.64,6.65L354,469.82a9.4,9.4,0,1,1,13.28,0ZM396.39,499a9.4,9.4,0,0,1-13.28,0l-6.65-6.64h0l6.65-6.65A9.39,9.39,0,0,1,396.39,499Z" transform="translate(-299.58 -431.35)"/><text class="cls-19" transform="translate(145.41 93.11)">P<tspan class="cls-20" x="62.44" y="0">risma</tspan></text><text class="cls-21" transform="translate(366.52 137.93)">S<tspan class="cls-22" x="27.2" y="0">o</tspan><tspan class="cls-23" x="55.02" y="0">f</tspan><tspan x="71.89" y="0">t</tspan></text></g></g></svg>